<svg xmlns="http://www.w3.org/2000/svg" xmlns:xlink="http://www.w3.org/1999/xlink" width="49.999" height="50" viewBox="0 0 49.999 50">
  <defs fill="#000000">
    <clipPath id="clip-path" fill="#000000">
      <rect id="Rectangle_274" data-name="Rectangle 274" width="49.999" height="50" fill="#50aab2"/>
    </clipPath>
  </defs>
  <g id="Group_1042" data-name="Group 1042" transform="translate(0 0)">
    <g id="Group_1041" data-name="Group 1041" transform="translate(0 0)" clip-path="url(#clip-path)">
      <path id="Path_2075" data-name="Path 2075" d="M46.075,50A3.9,3.9,0,0,1,43.3,48.852L31.265,36.817a.79.79,0,0,1,0-1.12l.624-.624-1.449-1.449-.14.109a18.9,18.9,0,0,1-11.483,3.9A18.824,18.824,0,0,1,5.5,5.5,18.7,18.7,0,0,1,18.815,0h0A18.815,18.815,0,0,1,33.732,30.3l-.108.14,1.448,1.448.623-.623a.791.791,0,0,1,1.122,0L48.852,43.3A3.924,3.924,0,0,1,46.075,50M32.946,36.257,44.419,47.731A2.341,2.341,0,0,0,47.73,44.42L36.257,32.946ZM18.815,1.576A17.239,17.239,0,0,0,6.625,31,17.238,17.238,0,1,0,31,6.626a17.124,17.124,0,0,0-12.189-5.05M32.445,31.8c-.1.108-.205.213-.31.318s-.229.225-.339.331l-.15.142,1.363,1.362.941-.941-1.363-1.364Z" transform="translate(0 0)" fill="#50aab2"/>
      <path id="Path_2076" data-name="Path 2076" d="M22.207,36.945a14.741,14.741,0,1,1,10.42-4.317,14.64,14.64,0,0,1-10.42,4.317m0-27.891a13.153,13.153,0,1,0,9.3,3.853,13.064,13.064,0,0,0-9.3-3.853" transform="translate(-3.392 -3.392)" fill="#50aab2"/>
      <path id="Path_2077" data-name="Path 2077" d="M30.7,35.148a.848.848,0,0,1-.847-.847V33l-.163-.044-.038-.005-.023-.005h-.02a13.709,13.709,0,0,1-2.922-.844.845.845,0,1,1,.687-1.545,12.291,12.291,0,0,0,2.514.723,7.1,7.1,0,0,0,1.028.079A4.225,4.225,0,0,0,32.49,31.1a1.457,1.457,0,0,0,1-1.1,1.3,1.3,0,0,0-.058-.8,1.342,1.342,0,0,0-.492-.52,8.932,8.932,0,0,0-2.46-.9l-.09-.026a10.113,10.113,0,0,1-2.859-1.1,2.809,2.809,0,0,1-1.282-3.033,3.178,3.178,0,0,1,2.108-2.346,5.583,5.583,0,0,1,1.328-.316l.177-.021V19.627a.847.847,0,1,1,1.693,0v1.348l.177.021c.048.006.093.012.141.021.417.063,1.391.223,1.793.325a.847.847,0,0,1-.206,1.669.885.885,0,0,1-.21-.026c-.31-.08-1.226-.229-1.621-.289a7.354,7.354,0,0,0-1.083-.084,4.508,4.508,0,0,0-1.591.255,1.455,1.455,0,0,0-1.039,1.07,1.3,1.3,0,0,0,.058.8,1.343,1.343,0,0,0,.493.519,8.9,8.9,0,0,0,2.46.9l.089.026a10.113,10.113,0,0,1,2.859,1.1,2.809,2.809,0,0,1,1.282,3.033,3.148,3.148,0,0,1-2.026,2.361,5.256,5.256,0,0,1-1.4.347l-.179.021V34.3a.848.848,0,0,1-.847.847" transform="translate(-11.893 -8.528)" fill="#50aab2"/>
    </g>
  </g>
</svg>