<svg xmlns="http://www.w3.org/2000/svg" xmlns:xlink="http://www.w3.org/1999/xlink" width="43.212" height="51.885" viewBox="0 0 43.212 51.885">
  <defs fill="#000000">
    <clipPath id="clip-path" fill="#000000">
      <rect id="Rectangle_273" data-name="Rectangle 273" width="43.212" height="51.885" fill="none"/>
    </clipPath>
  </defs>
  <g id="Group_1040" data-name="Group 1040" transform="translate(0 0)">
    <g id="Group_1039" data-name="Group 1039" transform="translate(0 0)" clip-path="url(#clip-path)">
      <path id="Path_2063" data-name="Path 2063" d="M34.312,22.749c0-1.6.012-3.083-.015-4.561a.705.705,0,0,0-.328-.527c-2.238-.985-2.942-1.85-2.846-3.762a3.961,3.961,0,0,1,3.189-3.8c0-.41.01-.82,0-1.229-.015-.529.156-.962.74-.95s.728.462.71.981c-.013.386,0,.773,0,.965a11.4,11.4,0,0,1,2.228,1.633,6.451,6.451,0,0,1,.945,2.223.7.7,0,0,1-.619.96c-.546.057-.766-.3-.8-.81a2.532,2.532,0,0,0-1.691-2.248c-.024.234-.056.409-.057.585-.006.849.058,1.7-.017,2.546-.107,1.191.058,2,1.433,2.462,1.456.494,1.848,1.91,1.764,3.359a3.677,3.677,0,0,1-2.422,3.414c-.59.234-.846.471-.777,1.121.06.558.16,1.246-.682,1.361-.53.072-.775-.362-.736-1.382A.917.917,0,0,0,33.6,24a3.723,3.723,0,0,1-2.472-3.227c-.075-.535.036-1.036.663-1.08.58-.04.725.4.78.924a2.417,2.417,0,0,0,1.738,2.134m-.051-6.575v-4.5a2.418,2.418,0,0,0-1.7,2.6c.057,1.063.528,1.6,1.7,1.9M35.8,18.228v4.449a2.38,2.38,0,0,0,1.7-2.633,1.789,1.789,0,0,0-1.7-1.816" transform="translate(-13.617 -3.465)" fill="#50aab2"/>
      <path id="Path_2064" data-name="Path 2064" d="M27.414,27.46a13.73,13.73,0,1,1,13.73-13.73,13.746,13.746,0,0,1-13.73,13.73m0-26.336A12.606,12.606,0,1,0,40.02,13.73,12.62,12.62,0,0,0,27.414,1.125" transform="translate(-5.99 0)" fill="#50aab2"/>
      <path id="Path_2065" data-name="Path 2065" d="M4.8,67.708a.562.562,0,0,1-.562-.562V36.71a.562.562,0,0,1,1.125,0V67.145a.562.562,0,0,1-.562.562" transform="translate(-1.853 -15.823)" fill="#50aab2"/>
      <path id="Path_2066" data-name="Path 2066" d="M21.9,73.025a.562.562,0,0,1-.562-.562V48.857a.562.562,0,1,1,1.125,0V72.462a.562.562,0,0,1-.562.562" transform="translate(-9.341 -21.14)" fill="#50aab2"/>
      <path id="Path_2067" data-name="Path 2067" d="M37.664,75.092a.562.562,0,0,1-.562-.562V53.58a.562.562,0,0,1,1.125,0V74.53a.562.562,0,0,1-.562.562" transform="translate(-16.24 -23.207)" fill="#50aab2"/>
      <path id="Path_2068" data-name="Path 2068" d="M54.328,72.387a.562.562,0,0,1-.562-.562V47.4a.562.562,0,1,1,1.125,0V71.824a.562.562,0,0,1-.562.562" transform="translate(-23.534 -20.502)" fill="#50aab2"/>
      <path id="Path_2069" data-name="Path 2069" d="M70.923,67.708a.562.562,0,0,1-.562-.562V36.71a.562.562,0,1,1,1.125,0V67.145a.562.562,0,0,1-.562.562" transform="translate(-30.798 -15.823)" fill="#50aab2"/>
      <path id="Path_2070" data-name="Path 2070" d="M5.065,74.4H.821A.821.821,0,0,1,0,73.582V69.338a.821.821,0,0,1,.821-.821H5.065a.821.821,0,0,1,.821.821v4.244a.821.821,0,0,1-.821.821" transform="translate(0 -29.991)" fill="#50aab2"/>
      <path id="Path_2071" data-name="Path 2071" d="M22.171,65.978H17.927a.821.821,0,0,1-.821-.821V60.913a.821.821,0,0,1,.821-.821h4.244a.821.821,0,0,1,.821.821v4.244a.821.821,0,0,1-.821.821" transform="translate(-7.488 -26.304)" fill="#50aab2"/>
      <path id="Path_2072" data-name="Path 2072" d="M38.384,76.063H34.14a.821.821,0,0,1-.821-.821V71a.821.821,0,0,1,.821-.821h4.244A.821.821,0,0,1,39.2,71v4.244a.821.821,0,0,1-.821.821" transform="translate(-14.584 -30.718)" fill="#50aab2"/>
      <path id="Path_2073" data-name="Path 2073" d="M54.6,59.631H50.353a.821.821,0,0,1-.821-.821V54.566a.821.821,0,0,1,.821-.821H54.6a.821.821,0,0,1,.821.821V58.81a.821.821,0,0,1-.821.821" transform="translate(-21.681 -23.525)" fill="#50aab2"/>
      <path id="Path_2074" data-name="Path 2074" d="M71.448,66.333H67.2a.821.821,0,0,1-.821-.821V61.268a.821.821,0,0,1,.821-.821h4.244a.821.821,0,0,1,.821.821v4.244a.821.821,0,0,1-.821.821" transform="translate(-29.057 -26.459)" fill="#50aab2"/>
    </g>
  </g>
</svg>