<svg xmlns="http://www.w3.org/2000/svg" xmlns:xlink="http://www.w3.org/1999/xlink" width="51.915" height="54" viewBox="0 0 51.915 54">
  <defs fill="#000000">
    <clipPath id="clip-path" fill="#000000">
      <rect id="Rectangle_271" data-name="Rectangle 271" width="51.915" height="54" fill="#50aab2"/>
    </clipPath>
  </defs>
  <g id="Group_1035" data-name="Group 1035" transform="translate(0 0)">
    <g id="Group_1034" data-name="Group 1034" transform="translate(0 0)" clip-path="url(#clip-path)">
      <path id="Path_2060" data-name="Path 2060" d="M4.384,54C1.6,54,0,52.411,0,49.644Q0,28.544,0,7.445A3.983,3.983,0,0,1,4.349,3.132q2.543,0,5.086,0l8.516,0,0-1.109c0-.448-.008-.861.008-1.275C17.985,0,18.408,0,18.568,0c.174,0,.58,0,.606.747.007.209.005.418,0,.628l0,1.7H32.728l0-1.017c0-.424,0-.844,0-1.264C32.747,0,33.178,0,33.34,0s.6.011.626.768c.015.412.011.826.008,1.27l0,1.091h8.513l5.027,0c2.8,0,4.4,1.612,4.4,4.415q0,21.022,0,42.044c0,2.8-1.607,4.408-4.408,4.409H4.384ZM1.237,49.534c0,2.195,1.014,3.217,3.193,3.217H47.486c2.2,0,3.18-.994,3.18-3.221V17.083H47.672v9.576q0,9.738,0,19.475c0,2.293-1.242,3.61-3.4,3.611q-7.406.006-14.815.006-10.913,0-21.824-.025a3.936,3.936,0,0,1-1.836-.474,3.176,3.176,0,0,1-1.554-3.06q.021-10.409.011-20.817V17.113H1.237Zm4.215-3.5c0,1.783.741,2.511,2.557,2.512H43.865c1.894,0,2.6-.714,2.6-2.632V17.094H5.451ZM10.139,4.394c-2.171,0-4.331.005-6.492.024A2.481,2.481,0,0,0,1.262,6.9c-.031,1.983-.025,4.009-.019,5.968,0,.809,0,2.88,0,2.88H50.666s0-6.473,0-8.288a2.734,2.734,0,0,0-3.086-3.077H35.216c-.173,0-.347.01-.537.022l-.706.035,0,1.259c0,.772-.008,1.5.02,2.242a1.509,1.509,0,0,0,.466.914,1.685,1.685,0,0,1,.051,2.428,1.63,1.63,0,0,1-1.157.467,1.661,1.661,0,0,1-1.161-.462,1.613,1.613,0,0,1-.511-1.138,1.8,1.8,0,0,1,.536-1.277l.047-.047a1.239,1.239,0,0,0,.447-.777c.026-.79.023-1.592.02-2.366l0-1.241H19.176s0,.99-.005,1.258c-.006.7-.012,1.362.023,2.037a1.9,1.9,0,0,0,.5,1.118,1.673,1.673,0,0,1,.04,2.428,1.666,1.666,0,0,1-2.314.006,1.68,1.68,0,0,1,.036-2.418l.069-.068a1.071,1.071,0,0,0,.4-.7c.023-.809.021-1.618.018-2.444l0-1.259Z" transform="translate(0 0)" fill="#50aab2"/>
      <path id="Path_2061" data-name="Path 2061" d="M32.307,59.947A27.462,27.462,0,0,1,24.341,58.8a13.577,13.577,0,0,1-1.457-.571,3.816,3.816,0,0,1-2.656-4.116c.159-2.406.1-4.854.035-7.223l-.014-.54a3.136,3.136,0,0,1,1.626-2.947,14.956,14.956,0,0,1,5.8-1.9,34.306,34.306,0,0,1,5.035-.39,26.568,26.568,0,0,1,7.691,1.1,14.055,14.055,0,0,1,3.2,1.562A2.459,2.459,0,0,1,44.737,46.1c-.026,1.05-.02,2.114-.014,3.144,0,.449.005.9.005,1.349,0,.424-.005.848-.01,1.271-.011.956-.023,1.945.025,2.921a3.037,3.037,0,0,1-1.587,2.879A13.148,13.148,0,0,1,37.9,59.478a35.259,35.259,0,0,1-5.591.469M21.566,53.736c-.01.2-.021.381-.032.545-.105,1.63.028,1.964,2.087,2.959a8.4,8.4,0,0,0,1.143.424A24.827,24.827,0,0,0,32.3,58.72q.773,0,1.549-.033a20.641,20.641,0,0,0,7.761-1.548c1.763-.8,2.133-1.5,1.8-3.445l-.091-.525-.5.188a29.2,29.2,0,0,1-10.3,1.938,29.452,29.452,0,0,1-10.356-1.95l-.565-.212Zm-.047-4.865c0,.094,0,.193.008.295a2.906,2.906,0,0,1-.011.571,2.191,2.191,0,0,0,1.511,2.514l.232.1a17.73,17.73,0,0,0,2.116.8,24.887,24.887,0,0,0,6.875.885c1.019,0,2.077-.047,3.234-.141a17.077,17.077,0,0,0,6.269-1.519c1.717-.833,2.137-1.771,1.605-3.582l-.134-.455-.444.167a29.239,29.239,0,0,1-10.261,1.925,29.4,29.4,0,0,1-10.4-1.974l-.6-.225Zm10.935-6.623c-.549.061-1.1.113-1.652.164-1.28.119-2.6.243-3.89.495a17.366,17.366,0,0,0-4.1,1.386c-.854.406-1.278.865-1.3,1.4s.382,1.047,1.231,1.533a9.22,9.22,0,0,0,1.923.839A26.9,26.9,0,0,0,32.4,49.2a29.973,29.973,0,0,0,6.762-.8,13.373,13.373,0,0,0,3.18-1.231c.747-.4,1.119-.834,1.136-1.339s-.334-.982-1.073-1.441a8.717,8.717,0,0,0-1.533-.739,27.685,27.685,0,0,0-8.342-1.4l-.036,0Z" transform="translate(-7.485 -15.224)" fill="#50aab2"/>
    </g>
  </g>
</svg>