<svg xmlns="http://www.w3.org/2000/svg" xmlns:xlink="http://www.w3.org/1999/xlink" width="61.598" height="82.453" viewBox="0 0 61.598 82.453">
  <defs fill="#000000">
    <clipPath id="clip-path" fill="#000000">
      <rect id="Rectangle_270" data-name="Rectangle 270" width="61.598" height="82.453" fill="#50aab2"/>
    </clipPath>
  </defs>
  <g id="Group_1033" data-name="Group 1033" transform="translate(0 0)">
    <g id="Group_1032" data-name="Group 1032" transform="translate(0 0)" clip-path="url(#clip-path)">
      <path id="Path_2056" data-name="Path 2056" d="M19.515,47.906a.816.816,0,0,1-.681-.37l-6.171-9.658L1.02,41.06a.793.793,0,0,1-.806-.232A.806.806,0,0,1,.051,40l9.263-25.42a.808.808,0,0,1,1.519.553L2.1,39.089l10.709-2.926a.807.807,0,0,1,.892.346l5.611,8.779,7.831-21.481a.806.806,0,1,1,1.515.553L20.273,47.377a.807.807,0,0,1-.671.526l-.086,0" transform="translate(0.001 34.546)" fill="#50aab2"/>
      <path id="Path_2057" data-name="Path 2057" d="M18.706,47.907l-.086,0a.807.807,0,0,1-.671-.526L9.556,24.361a.808.808,0,0,1,1.519-.553l7.831,21.481,5.611-8.779a.814.814,0,0,1,.892-.346L36.118,39.09,27.388,15.136a.808.808,0,0,1,1.519-.553L38.17,40a.814.814,0,0,1-.163.827.788.788,0,0,1-.809.232L25.555,37.879l-6.167,9.658a.811.811,0,0,1-.681.37" transform="translate(23.38 34.545)" fill="#50aab2"/>
      <path id="Path_2058" data-name="Path 2058" d="M29.606,58.285A29.142,29.142,0,1,1,58.749,29.142,29.173,29.173,0,0,1,29.606,58.285m0-56.669A27.527,27.527,0,1,0,57.133,29.142,27.558,27.558,0,0,0,29.606,1.615" transform="translate(1.141 -0.001)" fill="#50aab2"/>
      <path id="Path_2059" data-name="Path 2059" d="M28.969,34.171a.822.822,0,0,1-.391-.1l-8.731-4.822-8.921,4.462a.808.808,0,0,1-1.155-.875l1.885-9.793-7-7.1a.815.815,0,0,1-.187-.834.8.8,0,0,1,.664-.536l9.9-1.235,4.594-8.852a.812.812,0,0,1,.719-.436h.017a.8.8,0,0,1,.713.464l4.23,9.032,9.841,1.636a.808.808,0,0,1,.422,1.387l-7.285,6.814,1.487,9.865a.811.811,0,0,1-.339.782.823.823,0,0,1-.46.145m-9.1-6.641a.822.822,0,0,1,.391.1l7.672,4.234L26.62,23.2a.812.812,0,0,1,.246-.709l6.4-5.988-8.644-1.435a.809.809,0,0,1-.6-.453L20.3,6.678l-4.033,7.776a.817.817,0,0,1-.619.432l-8.7,1.083,6.15,6.24a.814.814,0,0,1,.218.719l-1.657,8.606,7.838-3.919a.811.811,0,0,1,.36-.086M15.551,14.084h0Z" transform="translate(10.879 9.948)" fill="#50aab2"/>
    </g>
  </g>
</svg>